<svg xmlns="http://www.w3.org/2000/svg" viewBox="0 0 643.89 108" width="1287.78" height="216" role="img" aria-label="Signal Cult – rewired VFX"><title>Signal Cult – rewired VFX</title><path fill="#F4F3EF" d="M24 20.76V31.54C15.71 35.61 10 44.14 10 54C10 63.86 15.71 72.39 24 76.46V87.24C10.06 82.63 0 69.49 0 54C0 38.51 10.06 25.37 24 20.76ZM70 54C70 69.49 59.94 82.63 46 87.24V76.46C54.29 72.39 60 63.86 60 54C60 44.14 54.29 35.61 46 31.54V20.76C59.94 25.37 70 38.51 70 54ZM127.93 62.14V53.03Q127.93 46.17 134.79 46.17H147.3V70.84Q147.3 77.7 140.44 77.7H132.11L129.82 75.99V73.26H140.22Q142.21 73.26 142.21 71.27V69H134.79Q127.93 69 127.93 62.14ZM185.05 69Q178.18 69 178.18 62.22Q178.18 55.43 185.05 55.43H191.75V52.6Q191.75 50.61 189.75 50.61H180.51V47.88L182.8 46.17H189.99Q196.83 46.17 196.83 53.03V69ZM153.7 69V46.17H166.21Q173.05 46.17 173.05 53.03V69H167.96V52.6Q167.96 50.61 165.97 50.61H158.78V69ZM94 67.29V64.57H104.04Q106.07 64.57 106.07 62.42Q106.07 60.22 104.4 59.93L99.54 59.12Q94 58.18 94 52.88Q94 46.17 100.88 46.17H107.78L110.08 47.88V50.61H101.09Q99.04 50.61 99.04 52.76Q99.04 54.87 100.8 55.16L105.66 55.97Q111.12 56.86 111.12 62.28Q111.12 69 104.23 69H96.3ZM203 61.44V36.83H208.09V61.94Q208.09 64.78 210.97 65V69.41Q203 69.41 203 61.44ZM133.01 62.58Q133.01 64.57 135 64.57H142.21V50.61H135Q133.01 50.61 133.01 52.6ZM116.78 69V46.17H121.87V69ZM183.26 62.58Q183.26 64.57 185.25 64.57H191.75V59.38H185.25Q183.26 59.38 183.26 61.37ZM116.64 42.23V37.03H122.01V42.23Z"/><path fill="#E5334B" d="M43.0 8.0C43.0 10.53 41.83 12.78 40.0 14.25V40.92C38.45 40.33 36.76 40.0 35.0 40.0C33.24 40.0 31.55 40.33 30.0 40.92V14.25C28.17 12.78 27.0 10.53 27.0 8.0C27.0 3.58 30.58 0.0 35.0 0.0C39.42 0.0 43.0 3.58 43.0 8.0ZM40.0 67.08V92.0C40.0 95.0 43.0 95.58 43.0 100.0C43.0 104.42 39.42 108.0 35.0 108.0C30.58 108.0 27.0 104.42 27.0 100.0C27.0 95.58 30.0 95.0 30.0 92.0V67.08C31.55 67.67 33.24 68.0 35.0 68.0C36.76 68.0 38.45 67.67 40.0 67.08ZM250.95 62.32V46.29H255.17V62.75Q255.17 65.32 257.73 65.32H265.72V46.29H269.94V69.0H257.63Q250.95 69.0 250.95 62.32ZM43.0 54.0C43.0 58.42 39.42 62.0 35.0 62.0C30.58 62.0 27.0 58.42 27.0 54.0C27.0 49.58 30.58 46.0 35.0 46.0C39.42 46.0 43.0 49.58 43.0 54.0ZM293.69 62.32V39.0H297.91V46.29H305.94V49.98H297.91V62.75Q297.91 65.32 300.47 65.32H306.38V67.51L304.38 69.0H300.37Q293.69 69.0 293.69 62.32ZM226.08 62.32V52.97Q226.08 46.29 232.76 46.29H241.15L243.15 47.78V49.98H232.86Q230.3 49.98 230.3 52.54V62.75Q230.3 65.32 232.86 65.32H243.15V67.51L241.15 69.0H232.76Q226.08 69.0 226.08 62.32ZM279.12 62.18V36.83H283.34V62.6Q283.34 65.54 286.32 65.73V69.38Q279.12 69.38 279.12 62.18ZM38.0 100.0C38.0 98.34 36.66 97.0 35.0 97.0C33.34 97.0 32.0 98.34 32.0 100.0C32.0 101.66 33.34 103.0 35.0 103.0C36.66 103.0 38.0 101.66 38.0 100.0Z"/><path fill="#444441" d="M346.38 19H349.38V89H346.38Z"/><path fill="#B4B2A9" d="M403.97 76.52C402.53 78.62 400.12 80.0 397.38 80.0C392.96 80.0 389.38 76.42 389.38 72.0C389.38 67.58 392.96 64.0 397.38 64.0C399.67 64.0 401.74 64.97 403.2 66.51Q409.22 65.47 414.23 62.19Q418.86 59.16 426.69 50.62Q435.36 41.16 441.04 37.44Q450.88 31.0 463.38 31.0C466.38 31.0 466.96 28.0 471.38 28.0C475.79 28.0 479.38 31.58 479.38 36.0C479.38 40.42 475.79 44.0 471.38 44.0C466.96 44.0 466.38 41.0 463.38 41.0Q453.87 41.0 446.52 45.81Q441.89 48.84 434.06 57.38Q425.39 66.84 419.71 70.56Q412.54 75.25 403.97 76.52ZM434.68 65.46Q436.51 63.58 438.48 61.43Q440.09 59.68 441.53 58.19Q444.37 60.78 446.52 62.19Q453.87 67.0 463.38 67.0C466.38 67.0 466.96 64.0 471.38 64.0C475.79 64.0 479.38 67.58 479.38 72.0C479.38 76.42 475.79 80.0 471.38 80.0C466.96 80.0 466.38 77.0 463.38 77.0Q450.88 77.0 441.04 70.56Q438.23 68.72 434.68 65.46ZM403.2 41.49C401.74 43.03 399.67 44.0 397.38 44.0C392.96 44.0 389.38 40.42 389.38 36.0C389.38 31.58 392.96 28.0 397.38 28.0C400.12 28.0 402.53 29.38 403.97 31.48Q412.54 32.75 419.71 37.44Q422.52 39.28 426.08 42.54Q424.24 44.42 422.27 46.57Q420.66 48.32 419.22 49.81Q416.38 47.22 414.23 45.81Q409.22 42.53 403.2 41.49ZM574.11 58.88V53.42Q574.11 49.3 578.22 49.3H582.67V43.7H585.72V63.0H578.22Q574.11 63.0 574.11 58.88ZM519.47 49.78 519.81 49.3H522.36L524.7 60.34H524.95L527.75 49.3H531.16L533.96 60.34H534.22L536.56 49.3H539.1L539.44 49.78L536.53 63.0H531.88L529.46 52.92L527.03 63.0H522.39L519.47 49.78ZM505.52 58.88V53.42Q505.52 49.3 509.64 49.3H513.03Q517.13 49.3 517.13 53.42V57.29H508.58V59.15Q508.58 60.34 509.77 60.34H516.61V61.97L515.24 63.0H509.64Q505.52 63.0 505.52 58.88ZM559.0 58.88V53.42Q559.0 49.3 563.12 49.3H566.51Q570.61 49.3 570.61 53.42V57.29H562.05V59.15Q562.05 60.34 563.25 60.34H570.09V61.97L568.71 63.0H563.12Q559.0 63.0 559.0 58.88ZM629.24 62.43 635.09 53.74 629.58 45.57 629.84 45.0H632.16L636.56 51.66L640.97 45.0H643.29L643.55 45.57L638.04 53.74L643.89 62.43L643.61 63.0H641.31L636.56 55.82L631.82 63.0H629.52L629.24 62.43ZM594.44 45.55 594.8 45.0H597.09L601.88 60.6H602.45L607.24 45.0H609.52L609.87 45.55L604.36 63.0H599.95L594.44 45.55ZM614.22 63.0V45.0H626.13V47.4H616.88V53.19H625.35V55.6H616.88V63.0H614.22ZM495.38 63.0V51.0Q496.32 49.3 498.97 49.3H501.71L503.09 50.33V51.96H499.69Q498.78 51.96 498.43 52.42V63.0H495.38ZM548.85 63.0V51.0Q549.8 49.3 552.45 49.3H555.19L556.56 50.33V51.96H553.16Q552.26 51.96 551.91 52.42V63.0H548.85ZM577.16 59.15Q577.16 60.34 578.35 60.34H582.67V51.96H578.35Q577.16 51.96 577.16 53.16V59.15ZM541.99 63.0V49.3H545.05V63.0H541.99ZM474.38 72.0C474.38 70.34 473.03 69.0 471.38 69.0C469.72 69.0 468.38 70.34 468.38 72.0C468.38 73.66 469.72 75.0 471.38 75.0C473.03 75.0 474.38 73.66 474.38 72.0ZM474.38 36.0C474.38 34.34 473.03 33.0 471.38 33.0C469.72 33.0 468.38 34.34 468.38 36.0C468.38 37.66 469.72 39.0 471.38 39.0C473.03 39.0 474.38 37.66 474.38 36.0ZM508.58 54.92H514.08V53.16Q514.08 51.96 512.89 51.96H509.77Q508.58 51.96 508.58 53.16V54.92ZM562.05 54.92H567.56V53.16Q567.56 51.96 566.37 51.96H563.25Q562.05 51.96 562.05 53.16V54.92ZM541.91 46.94V43.82H545.13V46.94H541.91Z"/></svg>
